<?xml version="1.0" encoding="UTF-8" standalone="no"?>
<!DOCTYPE svg PUBLIC "-//W3C//DTD SVG 1.1//EN" "http://www.w3.org/Graphics/SVG/1.1/DTD/svg11.dtd">
<svg width="100%" height="100%" viewBox="0 0 1538 1538" version="1.1" xmlns="http://www.w3.org/2000/svg" xmlns:xlink="http://www.w3.org/1999/xlink" xml:space="preserve" xmlns:serif="http://www.serif.com/" style="fill-rule:evenodd;clip-rule:evenodd;stroke-linejoin:round;stroke-miterlimit:2;">
    <g transform="matrix(4.16667,0,0,4.16667,0,0)">
        <g transform="matrix(-1,0,0,1,368.64,0)">
            <path d="M247.912,23.422L245.782,23.422C219.206,23.423 193.997,33.839 175.199,52.637C156.4,71.435 145.962,96.638 145.962,123.219C145.962,149.8 156.4,175.003 175.199,193.801C193.998,212.6 219.2,223.038 245.781,223.038C272.362,223.038 297.565,212.6 316.364,193.801C335.162,175.004 345.578,149.794 345.578,123.218L345.578,121.088C345.036,95.294 334.66,70.932 316.364,52.637C298.069,34.341 273.707,23.964 247.912,23.422ZM332.656,36.345C356.645,60.335 368.64,91.777 368.64,123.219L368.618,123.219C368.618,154.674 356.629,186.118 332.655,210.092C308.666,234.083 277.223,246.078 245.781,246.078C214.339,246.078 182.897,234.083 158.907,210.092C134.917,186.103 122.922,154.66 122.922,123.219C122.922,91.778 134.917,60.335 158.907,36.345C182.882,12.371 214.326,0.383 245.782,0.383L245.782,0.36C277.223,0.36 308.666,12.356 332.656,36.345Z" style="fill:rgb(20,21,21);fill-rule:nonzero;"/>
        </g>
        <g transform="matrix(-1,0,0,1,368.64,0)">
            <path d="M101.957,219.712L149.31,267.065L149.31,267.064L149.339,267.094L153.382,271.137L149.31,275.21L138.211,286.308L66.978,357.542C59.339,365.18 49.276,369 39.218,369C29.16,369 19.097,365.18 11.459,357.542C3.82,349.902 0,339.839 0,329.782C0,319.723 3.82,309.661 11.459,302.022L82.691,230.789L93.79,219.691L93.79,219.69L93.82,219.661L97.862,215.618L101.905,219.661L101.936,219.69L101.957,219.712Z" style="fill:rgb(20,21,21);fill-rule:nonzero;"/>
        </g>
        <g transform="matrix(-1,0,0,1,368.64,0)">
            <path d="M104.537,229.081L139.92,264.464L180.739,223.644C174.458,218.347 168.299,212.696 162.302,206.699C156.305,200.702 150.653,194.542 145.355,188.26L104.537,229.081Z" style="fill:rgb(20,21,21);"/>
        </g>
        <g transform="matrix(-1,0,0,1,368.64,0)">
            <path d="M191.304,68.742C198.476,61.57 206.897,55.962 216.042,52.138C225.238,48.293 235.148,46.225 245.244,46.157C248.413,46.145 250.971,43.566 250.958,40.397C250.947,37.229 248.368,34.67 245.199,34.682C233.53,34.76 222.14,37.124 211.631,41.518C201.071,45.934 191.377,52.379 183.159,60.597C179.995,63.762 177.019,67.255 174.256,71.042C171.531,74.775 169.12,78.674 167.047,82.702C165.593,85.522 166.702,88.987 169.522,90.442C172.343,91.896 175.808,90.787 177.262,87.966C179.114,84.368 181.209,80.966 183.525,77.791C185.803,74.67 188.404,71.644 191.304,68.742Z" style="fill:rgb(20,21,21);"/>
        </g>
    </g>
</svg>
